<?xml version="1.0" standalone="no"?>
<!DOCTYPE svg PUBLIC "-//W3C//DTD SVG 20010904//EN"
 "http://www.w3.org/TR/2001/REC-SVG-20010904/DTD/svg10.dtd">
<svg version="1.0" xmlns="http://www.w3.org/2000/svg"
 width="320.000000pt" height="320.000000pt" viewBox="0 0 320.000000 320.000000"
 preserveAspectRatio="xMidYMid meet">
<metadata>
Created by potrace 1.14, written by Peter Selinger 2001-2017
</metadata>
<g transform="translate(0.000000,320.000000) scale(0.100000,-0.100000)"
fill="#000000" stroke="none">
<path d="M1370 2660 c0 -18 -7 -20 -86 -20 -77 0 -86 -2 -91 -20 -4 -16 -14
-20 -49 -20 -40 0 -44 -2 -44 -25 0 -18 -5 -25 -20 -25 -15 0 -20 -7 -20 -25
0 -23 -3 -25 -50 -25 -43 0 -50 -3 -50 -20 0 -13 -7 -20 -20 -20 -13 0 -20 -7
-20 -20 0 -13 -7 -20 -20 -20 -15 0 -20 -7 -20 -24 0 -18 -6 -25 -22 -28 -15
-2 -24 -11 -26 -25 -3 -17 -10 -23 -28 -23 -17 0 -24 -5 -24 -20 0 -13 -7 -20
-20 -20 -13 0 -20 -7 -20 -20 0 -13 -7 -20 -20 -20 -17 0 -20 -7 -20 -50 0
-47 -2 -50 -25 -50 -18 0 -25 -5 -25 -20 0 -15 -7 -20 -25 -20 -23 0 -25 -4
-25 -45 0 -38 -3 -45 -20 -45 -19 0 -20 -7 -20 -90 0 -83 -1 -90 -20 -90 -19
0 -20 -7 -20 -230 0 -223 1 -230 20 -230 19 0 20 -7 20 -90 0 -83 1 -90 20
-90 17 0 20 -7 20 -45 0 -41 2 -45 25 -45 18 0 25 -5 25 -20 0 -15 7 -20 25
-20 23 0 25 -4 25 -45 0 -38 3 -45 20 -45 15 0 20 -7 20 -25 0 -18 5 -25 20
-25 13 0 20 -7 20 -20 0 -15 7 -20 24 -20 18 0 25 -6 28 -22 2 -15 11 -24 26
-26 14 -2 22 -10 22 -23 0 -12 7 -19 20 -19 15 0 20 -7 20 -25 0 -18 5 -25 20
-25 13 0 20 -7 20 -20 0 -17 7 -20 50 -20 47 0 50 -2 50 -25 0 -18 5 -25 20
-25 13 0 20 -7 20 -20 0 -17 7 -20 44 -20 39 0 45 -3 48 -22 3 -22 8 -23 91
-26 79 -3 87 -5 87 -22 0 -19 8 -20 230 -20 222 0 230 1 230 20 0 17 8 19 88
22 82 3 87 4 90 25 3 20 9 23 48 23 37 0 44 3 44 20 0 13 7 20 20 20 15 0 20
7 20 25 0 23 4 25 45 25 38 0 45 3 45 20 0 15 7 20 25 20 20 0 25 5 25 25 0
18 5 25 20 25 13 0 20 7 20 19 0 13 8 21 23 23 14 2 23 11 25 26 2 14 10 22
23 22 12 0 19 7 19 20 0 15 7 20 25 20 20 0 25 5 25 25 0 18 5 25 20 25 17 0
20 7 20 45 0 41 2 45 25 45 18 0 25 5 25 20 0 13 7 20 20 20 17 0 20 7 20 45
0 41 2 45 25 45 25 0 25 1 25 90 0 83 1 90 20 90 19 0 20 7 20 230 0 223 -1
230 -20 230 -19 0 -20 7 -20 90 0 89 0 90 -25 90 -23 0 -25 4 -25 45 0 38 -3
45 -20 45 -13 0 -20 7 -20 20 0 15 -7 20 -25 20 -23 0 -25 3 -25 50 0 43 -3
50 -20 50 -13 0 -20 7 -20 20 0 15 -7 20 -25 20 -18 0 -25 5 -25 20 0 13 -7
20 -19 20 -13 0 -21 8 -23 23 -2 14 -11 23 -25 25 -17 3 -23 10 -23 28 0 17
-5 24 -20 24 -13 0 -20 7 -20 20 0 15 -7 20 -25 20 -18 0 -25 5 -25 20 0 17
-7 20 -45 20 -41 0 -45 2 -45 25 0 18 -5 25 -20 25 -15 0 -20 7 -20 25 0 23
-4 25 -44 25 -35 0 -45 4 -49 20 -5 18 -14 20 -91 20 -79 0 -86 2 -86 20 0 19
-7 20 -230 20 -223 0 -230 -1 -230 -20z m410 -410 c0 -18 7 -20 64 -20 59 0
65 -2 68 -22 2 -19 10 -24 46 -26 34 -3 42 -7 42 -23 0 -12 7 -19 19 -19 13 0
21 -8 23 -22 2 -15 11 -24 24 -26 12 -2 24 -12 27 -23 3 -11 14 -19 26 -19 16
0 21 -6 21 -25 0 -18 5 -25 20 -25 17 0 20 -7 20 -41 0 -32 4 -42 20 -46 17
-5 20 -14 20 -69 0 -62 1 -64 25 -64 l25 0 0 -180 0 -180 -25 0 c-24 0 -25 -2
-25 -64 0 -55 -3 -64 -20 -69 -16 -4 -20 -14 -20 -46 0 -34 -3 -41 -20 -41
-13 0 -20 -7 -20 -19 0 -13 -8 -21 -22 -23 -15 -2 -24 -11 -26 -25 -2 -14 -11
-23 -25 -25 -14 -2 -23 -11 -25 -25 -2 -15 -10 -23 -23 -23 -12 0 -19 -7 -19
-20 0 -17 -7 -20 -41 -20 -32 0 -42 -4 -46 -20 -5 -17 -14 -20 -69 -20 -62 0
-64 -1 -64 -25 l0 -25 -180 0 -180 0 0 25 c0 24 -2 25 -64 25 -55 0 -64 3 -69
20 -4 16 -14 20 -46 20 -34 0 -41 3 -41 20 0 15 -7 20 -25 20 -19 0 -25 5 -25
21 0 12 -8 23 -19 26 -11 3 -21 15 -23 27 -2 13 -11 22 -25 24 -15 2 -23 10
-23 23 0 12 -7 19 -19 19 -16 0 -20 8 -23 43 -2 35 -7 43 -25 45 -21 3 -23 9
-23 68 0 57 -2 64 -20 64 -19 0 -20 7 -20 180 0 173 1 180 20 180 18 0 20 7
20 64 0 59 2 65 23 68 18 2 23 10 25 46 3 34 7 42 23 42 14 0 19 7 19 25 0 19
5 25 21 25 12 0 23 8 26 19 3 11 13 21 24 24 11 3 19 14 19 26 0 16 6 21 25
21 18 0 25 5 25 19 0 16 8 20 43 23 35 2 43 7 45 26 3 20 9 22 68 22 57 0 64
2 64 20 0 19 7 20 180 20 173 0 180 -1 180 -20z"/>
</g>
</svg>
