<svg width="235" height="55" viewBox="0 0 235 55" fill="none" xmlns="http://www.w3.org/2000/svg">
<rect width="235" height="55" fill="url(#paint0_linear_824_2)"/>
<path d="M62.6301 28.178C63.0861 28.178 63.4821 28.121 63.8181 28.007C64.1601 27.893 64.4391 27.737 64.6551 27.539C64.8771 27.335 65.0421 27.095 65.1501 26.819C65.2581 26.543 65.3121 26.24 65.3121 25.91C65.3121 25.25 65.0931 24.743 64.6551 24.389C64.2231 24.035 63.5601 23.858 62.6661 23.858H61.1181V28.178H62.6301ZM68.8581 35H66.6711C66.2571 35 65.9571 34.838 65.7711 34.514L63.0351 30.347C62.9331 30.191 62.8191 30.08 62.6931 30.014C62.5731 29.948 62.3931 29.915 62.1531 29.915H61.1181V35H58.6971V21.986H62.6661C63.5481 21.986 64.3041 22.079 64.9341 22.265C65.5701 22.445 66.0891 22.7 66.4911 23.03C66.8991 23.36 67.1991 23.756 67.3911 24.218C67.5831 24.674 67.6791 25.178 67.6791 25.73C67.6791 26.168 67.6131 26.582 67.4811 26.972C67.3551 27.362 67.1691 27.716 66.9231 28.034C66.6831 28.352 66.3831 28.631 66.0231 28.871C65.6691 29.111 65.2641 29.3 64.8081 29.438C64.9641 29.528 65.1081 29.636 65.2401 29.762C65.3721 29.882 65.4921 30.026 65.6001 30.194L68.8581 35ZM74.3864 23.912V27.521H78.9404V29.384H74.3864V33.065H80.1644V35H71.9564V21.986H80.1644V23.912H74.3864ZM90.8787 30.086L89.2947 25.757C89.2167 25.565 89.1357 25.337 89.0517 25.073C88.9677 24.809 88.8837 24.524 88.7997 24.218C88.7217 24.524 88.6407 24.812 88.5567 25.082C88.4727 25.346 88.3917 25.577 88.3137 25.775L86.7387 30.086H90.8787ZM95.1537 35H93.2817C93.0717 35 92.9007 34.949 92.7687 34.847C92.6367 34.739 92.5377 34.607 92.4717 34.451L91.4997 31.796H86.1087L85.1367 34.451C85.0887 34.589 84.9957 34.715 84.8577 34.829C84.7197 34.943 84.5487 35 84.3447 35H82.4547L87.5757 21.986H90.0417L95.1537 35ZM109.75 28.493C109.75 29.447 109.591 30.323 109.273 31.121C108.955 31.919 108.508 32.606 107.932 33.182C107.356 33.758 106.663 34.205 105.853 34.523C105.043 34.841 104.143 35 103.153 35H98.1936V21.986H103.153C104.143 21.986 105.043 22.148 105.853 22.472C106.663 22.79 107.356 23.237 107.932 23.813C108.508 24.383 108.955 25.067 109.273 25.865C109.591 26.663 109.75 27.539 109.75 28.493ZM107.266 28.493C107.266 27.779 107.17 27.14 106.978 26.576C106.792 26.006 106.519 25.526 106.159 25.136C105.805 24.74 105.373 24.437 104.863 24.227C104.359 24.017 103.789 23.912 103.153 23.912H100.624V33.074H103.153C103.789 33.074 104.359 32.969 104.863 32.759C105.373 32.549 105.805 32.249 106.159 31.859C106.519 31.463 106.792 30.983 106.978 30.419C107.17 29.849 107.266 29.207 107.266 28.493ZM133.762 21.986V35H131.629V26.594C131.629 26.258 131.647 25.895 131.683 25.505L127.75 32.894C127.564 33.248 127.279 33.425 126.895 33.425H126.553C126.169 33.425 125.884 33.248 125.698 32.894L121.72 25.478C121.738 25.676 121.753 25.871 121.765 26.063C121.777 26.255 121.783 26.432 121.783 26.594V35H119.65V21.986H121.477C121.585 21.986 121.678 21.989 121.756 21.995C121.834 22.001 121.903 22.016 121.963 22.04C122.029 22.064 122.086 22.103 122.134 22.157C122.188 22.211 122.239 22.283 122.287 22.373L126.184 29.6C126.286 29.792 126.379 29.99 126.463 30.194C126.553 30.398 126.64 30.608 126.724 30.824C126.808 30.602 126.895 30.389 126.985 30.185C127.075 29.975 127.171 29.774 127.273 29.582L131.116 22.373C131.164 22.283 131.215 22.211 131.269 22.157C131.323 22.103 131.38 22.064 131.44 22.04C131.506 22.016 131.578 22.001 131.656 21.995C131.734 21.989 131.827 21.986 131.935 21.986H133.762ZM150.769 28.493C150.769 29.447 150.61 30.332 150.292 31.148C149.98 31.958 149.536 32.66 148.96 33.254C148.384 33.848 147.691 34.313 146.881 34.649C146.071 34.979 145.171 35.144 144.181 35.144C143.197 35.144 142.3 34.979 141.49 34.649C140.68 34.313 139.984 33.848 139.402 33.254C138.826 32.66 138.379 31.958 138.061 31.148C137.743 30.332 137.584 29.447 137.584 28.493C137.584 27.539 137.743 26.657 138.061 25.847C138.379 25.031 138.826 24.326 139.402 23.732C139.984 23.138 140.68 22.676 141.49 22.346C142.3 22.01 143.197 21.842 144.181 21.842C144.841 21.842 145.462 21.92 146.044 22.076C146.626 22.226 147.16 22.442 147.646 22.724C148.132 23 148.567 23.339 148.951 23.741C149.341 24.137 149.671 24.581 149.941 25.073C150.211 25.565 150.415 26.099 150.553 26.675C150.697 27.251 150.769 27.857 150.769 28.493ZM148.294 28.493C148.294 27.779 148.198 27.14 148.006 26.576C147.814 26.006 147.541 25.523 147.187 25.127C146.833 24.731 146.401 24.428 145.891 24.218C145.387 24.008 144.817 23.903 144.181 23.903C143.545 23.903 142.972 24.008 142.462 24.218C141.958 24.428 141.526 24.731 141.166 25.127C140.812 25.523 140.539 26.006 140.347 26.576C140.155 27.14 140.059 27.779 140.059 28.493C140.059 29.207 140.155 29.849 140.347 30.419C140.539 30.983 140.812 31.463 141.166 31.859C141.526 32.249 141.958 32.549 142.462 32.759C142.972 32.969 143.545 33.074 144.181 33.074C144.817 33.074 145.387 32.969 145.891 32.759C146.401 32.549 146.833 32.249 147.187 31.859C147.541 31.463 147.814 30.983 148.006 30.419C148.198 29.849 148.294 29.207 148.294 28.493ZM158.521 28.178C158.977 28.178 159.373 28.121 159.709 28.007C160.051 27.893 160.33 27.737 160.546 27.539C160.768 27.335 160.933 27.095 161.041 26.819C161.149 26.543 161.203 26.24 161.203 25.91C161.203 25.25 160.984 24.743 160.546 24.389C160.114 24.035 159.451 23.858 158.557 23.858H157.009V28.178H158.521ZM164.749 35H162.562C162.148 35 161.848 34.838 161.662 34.514L158.926 30.347C158.824 30.191 158.71 30.08 158.584 30.014C158.464 29.948 158.284 29.915 158.044 29.915H157.009V35H154.588V21.986H158.557C159.439 21.986 160.195 22.079 160.825 22.265C161.461 22.445 161.98 22.7 162.382 23.03C162.79 23.36 163.09 23.756 163.282 24.218C163.474 24.674 163.57 25.178 163.57 25.73C163.57 26.168 163.504 26.582 163.372 26.972C163.246 27.362 163.06 27.716 162.814 28.034C162.574 28.352 162.274 28.631 161.914 28.871C161.56 29.111 161.155 29.3 160.699 29.438C160.855 29.528 160.999 29.636 161.131 29.762C161.263 29.882 161.383 30.026 161.491 30.194L164.749 35ZM170.277 23.912V27.521H174.831V29.384H170.277V33.065H176.055V35H167.847V21.986H176.055V23.912H170.277Z" fill="white"/>
<defs>
<linearGradient id="paint0_linear_824_2" x1="0" y1="55" x2="235" y2="55" gradientUnits="userSpaceOnUse">
<stop stop-color="#611818"/>
<stop offset="1" stop-color="#A36754"/>
</linearGradient>
</defs>
</svg>
